<svg viewBox="0 0 453.5433 453.5433" xmlns="http://www.w3.org/2000/svg"><g fill="#221f20"><path d="m136.2156 176.0256 5.8706 1.3823a68.2882 68.2882 0 0 1 -5.18 8.5474 36.1575 36.1575 0 0 1 -5.2647 5.61q-15.0215 13.9853-40.4875 13.9847-16.0539 0-28.6577-6.474a51.7043 51.7043 0 0 1 -11.1357-7.7715 47.3972 47.3972 0 0 1 -8.375-10.4448 50.6579 50.6579 0 0 1 -6.9922-26.5879 48.3228 48.3228 0 0 1 4.1466-19.1612 53.0921 53.0921 0 0 1 10.875-16.5747q14.1577-14.1559 36.4291-14.1559h2.4159v95.3q4.92.605 6.39.603a43.1843 43.1843 0 0 0 26.3271-9.0625 54.307 54.307 0 0 0 7.08-6.3012 58.1808 58.1808 0 0 0 6.5585-8.8937zm-14.6763-71.0415a19.5243 19.5243 0 0 1 10.1875 2.6748 19.9154 19.9154 0 0 1 7.25 7.252 20.7231 20.7231 0 0 1 0 20.3725 19.9072 19.9072 0 0 1 -7.335 7.165 19.376 19.376 0 0 1 -10.1025 2.6763 19.0348 19.0348 0 0 1 -9.9263-2.6763 20.58 20.58 0 0 1 -7.25-7.3378 19.0067 19.0067 0 0 1 -2.7641-10.0142 19.3609 19.3609 0 0 1 2.6762-10.0991 20.6147 20.6147 0 0 1 7.253-7.3384 19.1938 19.1938 0 0 1 10.0112-2.6748z"/><path d="m207.4309 104.8117v101.6h-2.7609a57.97 57.97 0 0 1 -27.6246-6.644 49.7874 49.7874 0 0 1 -19.5073-18.3009 48.601 48.601 0 0 1 -7.165-25.812 49.1791 49.1791 0 0 1 15.5369-36.2548 51.9749 51.9749 0 0 1 17.18-10.79 57.7194 57.7194 0 0 1 20.9741-3.7979zm11.8271 101.6v-101.6h1.9854a64.3972 64.3972 0 0 1 22.3566 3.7115 50.7167 50.7167 0 0 1 17.5244 10.5307 49.0048 49.0048 0 0 1 11.5664 16.3145 51.8953 51.8953 0 0 1 4.0586 20.459 48.3409 48.3409 0 0 1 -7.08 25.8964 49.9453 49.9453 0 0 1 -19.68 18.1285 59.8859 59.8859 0 0 1 -28.228 6.559z"/><path d="m153.75 287.529v-65.4326h54.1241v99.873h-6.0441q-14.589 0-25.4663-4.1425a41.2783 41.2783 0 0 1 -9.6655-5.05 32.7739 32.7739 0 0 1 -7.0806-6.8623 29.8624 29.8624 0 0 1 -5.8676-18.3856zm65.605 34.44v-99.873h54.6425v99.873z"/><path d="m294.4534 349.1638v-127.0674h54.2966v127.0674zm65.951-26.6758v-100.3916h3.1944a57.2693 57.2693 0 0 1 27.2783 6.6465 49.8425 49.8425 0 0 1 19.5957 18.2139 47.7213 47.7213 0 0 1 7.0771 25.5506 52.5655 52.5655 0 0 1 -3.7128 20.1134 46.49 46.49 0 0 1 -27.1905 26.3272 56.8675 56.8675 0 0 1 -20.89 3.7129 5.9186 5.9186 0 0 0 -1.1221-.085 9.1483 9.1483 0 0 1 -1.2939-.0879z"/></g><path d="m269.7454 164.7927a19.5336 19.5336 0 0 1 10.1864 2.6767 19.9257 19.9257 0 0 1 7.25 7.253 20.7175 20.7175 0 0 1 0 20.371 19.9364 19.9364 0 0 1 -7.3379 7.165 19.3537 19.3537 0 0 1 -10.0985 2.6769 19.0336 19.0336 0 0 1 -9.9269-2.6769 20.5827 20.5827 0 0 1 -7.2529-7.3378 19.0219 19.0219 0 0 1 -2.7617-10.0142 19.3294 19.3294 0 0 1 2.6767-10.0991 20.6173 20.6173 0 0 1 7.25-7.3379 19.1993 19.1993 0 0 1 10.0148-2.6767z" fill="#e75221"/></svg>