<svg viewBox="0 0 453.5433 170.0787" xmlns="http://www.w3.org/2000/svg"><path d="m-.2059 0h453.955v170.0787h-453.955z" fill="#221f20"/><g fill="#fff"><path d="m115.9538 96.1342 4.052.9534a47.0374 47.0374 0 0 1 -3.5752 5.8993 24.8088 24.8088 0 0 1 -3.635 3.8733q-10.3683 9.6531-27.947 9.6533a42.6741 42.6741 0 0 1 -19.7833-4.4691 35.719 35.719 0 0 1 -7.6869-5.363 32.6791 32.6791 0 0 1 -5.78-7.21 34.9682 34.9682 0 0 1 -4.8267-18.3534 33.3822 33.3822 0 0 1 2.86-13.2286 36.674 36.674 0 0 1 7.5083-11.441q9.7724-9.7726 25.1462-9.7726h1.6685v65.7856q3.3964.4172 4.41.4171a29.82 29.82 0 0 0 18.1744-6.2568 37.3445 37.3445 0 0 0 4.8862-4.35 40.0712 40.0712 0 0 0 4.5285-6.1375zm-10.13-49.0413a13.482 13.482 0 0 1 7.0315 1.8473 13.7442 13.7442 0 0 1 5.0054 5.0054 14.305 14.305 0 0 1 0 14.0629 13.7423 13.7423 0 0 1 -5.065 4.9459 13.3534 13.3534 0 0 1 -6.9719 1.8472 13.1318 13.1318 0 0 1 -6.8526-1.8472 14.2046 14.2046 0 0 1 -5.0053-5.065 13.1245 13.1245 0 0 1 -1.9069-6.9124 13.3511 13.3511 0 0 1 1.8472-6.9717 14.2236 14.2236 0 0 1 5.0053-5.0653 13.2573 13.2573 0 0 1 6.9122-1.8471z"/><path d="m165.1142 46.9737v70.1356h-1.9068a39.997 39.997 0 0 1 -19.0683-4.5883 34.3519 34.3519 0 0 1 -13.467-12.6327 33.5451 33.5451 0 0 1 -4.9459-17.8169 33.9617 33.9617 0 0 1 10.7261-25.0272 35.888 35.888 0 0 1 11.8577-7.4485 39.8615 39.8615 0 0 1 14.48-2.622zm8.1636 70.1356v-70.1356h1.3706a44.49 44.49 0 0 1 15.4334 2.5623 35.0273 35.0273 0 0 1 12.0964 7.27 33.8651 33.8651 0 0 1 7.9848 11.262 35.8411 35.8411 0 0 1 2.8008 14.1226 33.3631 33.3631 0 0 1 -4.8863 17.8764 34.4823 34.4823 0 0 1 -13.5863 12.5137 41.3325 41.3325 0 0 1 -19.4852 4.5286z"/><path d="m224.67 92.8568v-45.168h37.362v68.9439h-4.172a49.271 49.271 0 0 1 -17.5785-2.86 28.5484 28.5484 0 0 1 -6.674-3.486 22.6063 22.6063 0 0 1 -4.8862-4.7373 20.61 20.61 0 0 1 -4.0513-12.6926zm45.2873 23.7759v-68.9439h37.7194v68.9439z"/><path d="m321.7986 135.403v-87.7142h37.4814v87.7142zm45.5256-18.413v-69.3012h2.2048a39.5258 39.5258 0 0 1 18.83 4.5883 34.3979 34.3979 0 0 1 13.5264 12.5729 32.9431 32.9431 0 0 1 4.8863 17.6383 36.3065 36.3065 0 0 1 -2.5623 13.884 32.0952 32.0952 0 0 1 -18.77 18.1744 39.2848 39.2848 0 0 1 -14.42 2.5623 4.0884 4.0884 0 0 0 -.7746-.0595 6.565 6.565 0 0 1 -.8939-.06z"/></g><path d="m203.0438 90.0743a13.4812 13.4812 0 0 1 7.0316 1.8474 13.745 13.745 0 0 1 5.0054 5.0054 14.307 14.307 0 0 1 0 14.0629 13.7449 13.7449 0 0 1 -5.0651 4.9459 13.3531 13.3531 0 0 1 -6.9719 1.8471 13.1311 13.1311 0 0 1 -6.8525-1.8471 14.2081 14.2081 0 0 1 -5.0056-5.0651 13.1253 13.1253 0 0 1 -1.9068-6.9124 13.3524 13.3524 0 0 1 1.8473-6.9717 14.2249 14.2249 0 0 1 5.0054-5.065 13.2564 13.2564 0 0 1 6.9122-1.8474z" fill="#e7511e"/></svg>