<svg viewBox="0 0 453.5433 453.5433" xmlns="http://www.w3.org/2000/svg"><path d="m0 0h453.5433v453.5433h-453.5433z" fill="#e75221"/><path d="m288.0344 271.556 12.4795 2.9354q-6.7876 12.6663-11.0133 18.1728-3.3 4.7751-11.1929 11.9286-31.9347 29.73-86.0806 29.7321-34.1388 0-60.9352-13.7627a110.0117 110.0117 0 0 1 -23.6776-16.5184 100.7882 100.7882 0 0 1 -17.8035-22.21q-14.8646-24.7776-14.8659-56.5281a102.8618 102.8618 0 0 1 8.8084-40.7473 113.0537 113.0537 0 0 1 23.1271-35.24q30.0986-30.0986 77.4533-30.1h5.1407v202.6252q10.4592 1.2866 13.5811 1.2884 30.1019 0 55.9791-19.2749a115.0383 115.0383 0 0 0 15.0526-13.3963q5.6847-5.8726 13.9472-18.9048zm-31.2031-151.0529a41.4842 41.4842 0 0 1 21.6575 5.69 42.3176 42.3176 0 0 1 15.4186 15.4169 44.0641 44.0641 0 0 1 0 43.3148 42.3766 42.3766 0 0 1 -15.6 15.2355 41.1382 41.1382 0 0 1 -21.4764 5.6878 40.4468 40.4468 0 0 1 -21.1064-5.6878 43.7823 43.7823 0 0 1 -15.4167-15.6016 40.4075 40.4075 0 0 1 -5.873-21.2915 41.1215 41.1215 0 0 1 5.69-21.4724 43.8155 43.8155 0 0 1 15.4167-15.6015 40.7967 40.7967 0 0 1 21.2897-5.6902z" fill="#fff"/><path d="m355.8344 243.9989a41.5127 41.5127 0 0 1 21.6576 5.6878 42.3454 42.3454 0 0 1 15.4167 15.4168 44.064 44.064 0 0 1 0 43.3151 42.3516 42.3516 0 0 1 -15.6 15.237 41.1278 41.1278 0 0 1 -21.4746 5.6882 40.429 40.429 0 0 1 -21.1063-5.6882 43.7912 43.7912 0 0 1 -15.4178-15.6034 40.4193 40.4193 0 0 1 -5.873-21.2912 41.1393 41.1393 0 0 1 5.69-21.4745 43.8156 43.8156 0 0 1 15.4168-15.6 40.8169 40.8169 0 0 1 21.2906-5.6876z" fill="#221f20"/></svg>