<svg viewBox="0 0 453.5433 453.5433" xmlns="http://www.w3.org/2000/svg"><circle cx="226.7717" cy="226.7717" fill="#fff" r="225"/><path d="m288.6169 255.2133 8.4828 1.9953a98.1638 98.1638 0 0 1 -7.4861 12.3528 52.01 52.01 0 0 1 -7.6083 8.1083q-21.7072 20.2089-58.5123 20.21-23.2056 0-41.42-9.355a74.7829 74.7829 0 0 1 -16.0946-11.2282 68.5082 68.5082 0 0 1 -12.1018-15.0965q-10.1042-16.8423-10.1049-38.4244a69.9179 69.9179 0 0 1 5.9874-27.6975 76.8485 76.8485 0 0 1 15.72-23.9544q20.4591-20.4591 52.648-20.46h3.4943v137.7321q7.11.8745 9.2317.8758 20.4614 0 38.0512-13.1019a78.2093 78.2093 0 0 0 10.2318-9.106 84.1174 84.1174 0 0 0 9.4808-12.8504zm-21.21-102.6766a28.1988 28.1988 0 0 1 14.7215 3.8677 28.7667 28.7667 0 0 1 10.4806 10.4794 29.9525 29.9525 0 0 1 0 29.4428 28.8056 28.8056 0 0 1 -10.6038 10.3562 27.963 27.963 0 0 1 -14.5983 3.8662 27.4939 27.4939 0 0 1 -14.3469-3.8662 29.7609 29.7609 0 0 1 -10.4793-10.6051 27.4659 27.4659 0 0 1 -3.9921-14.4727 27.9519 27.9519 0 0 1 3.8677-14.5956 29.7838 29.7838 0 0 1 10.4793-10.605 27.7315 27.7315 0 0 1 14.4714-3.8677z" fill="#221f20"/><path d="m334.7033 236.4817a28.218 28.218 0 0 1 14.7215 3.8662 28.784 28.784 0 0 1 10.4794 10.4794 29.9522 29.9522 0 0 1 0 29.443 28.7884 28.7884 0 0 1 -10.6042 10.3572 27.9559 27.9559 0 0 1 -14.5971 3.8665 27.4813 27.4813 0 0 1 -14.3468-3.8665 29.7661 29.7661 0 0 1 -10.4806-10.6062 27.4745 27.4745 0 0 1 -3.9921-14.4725 27.9633 27.9633 0 0 1 3.8677-14.5971 29.7837 29.7837 0 0 1 10.4794-10.6038 27.745 27.745 0 0 1 14.4728-3.8662z" fill="#e75221"/></svg>