<svg viewBox="0 0 453.5433 453.5433" xmlns="http://www.w3.org/2000/svg"><circle cx="226.7717" cy="226.7717" fill="#fff" r="225"/><g fill="#221f20"><path d="m155.5716 191.8724 4.6158 1.0868a53.689 53.689 0 0 1 -4.0725 6.72 28.4389 28.4389 0 0 1 -4.1394 4.4112q-11.811 10.9956-31.8337 10.9956a48.6066 48.6066 0 0 1 -22.5322-5.09 40.6505 40.6505 0 0 1 -8.7554-6.11 37.2673 37.2673 0 0 1 -6.5849-8.2123 39.83 39.83 0 0 1 -5.4976-20.9048 37.9951 37.9951 0 0 1 3.26-15.0659 41.7469 41.7469 0 0 1 8.5505-13.0319q11.1316-11.13 28.6426-11.13h1.8992v74.93q3.8682.4755 5.0239.4741a33.9534 33.9534 0 0 0 20.7-7.1255 42.6985 42.6985 0 0 0 5.5667-4.9543 45.7353 45.7353 0 0 0 5.157-6.993zm-11.5392-55.8566a15.35 15.35 0 0 1 8.01 2.1031 15.6591 15.6591 0 0 1 5.7 5.7019 16.2938 16.2938 0 0 1 0 16.0179 15.6541 15.6541 0 0 1 -5.7672 5.6336 15.2357 15.2357 0 0 1 -7.9431 2.1042 14.9673 14.9673 0 0 1 -7.8046-2.1042 16.1831 16.1831 0 0 1 -5.7-5.7695 14.9442 14.9442 0 0 1 -2.1732-7.8737 15.2229 15.2229 0 0 1 2.1041-7.94 16.208 16.208 0 0 1 5.7027-5.77 15.0912 15.0912 0 0 1 7.8713-2.1033z"/><path d="m211.5649 135.88v79.883h-2.1706a45.5787 45.5787 0 0 1 -21.72-5.2238 39.1456 39.1456 0 0 1 -15.3376-14.3892 38.2129 38.2129 0 0 1 -5.6335-20.2948 38.6674 38.6674 0 0 1 12.2157-28.5052 40.8645 40.8645 0 0 1 13.5076-8.4836 45.3806 45.3806 0 0 1 16.4909-2.9862zm9.2991 79.883v-79.883h1.561a50.6356 50.6356 0 0 1 17.5778 2.9182 39.8787 39.8787 0 0 1 13.7787 8.28 38.53 38.53 0 0 1 9.0941 12.8273 40.8034 40.8034 0 0 1 3.1911 16.086 38.0079 38.0079 0 0 1 -5.5667 20.3611 39.27 39.27 0 0 1 -15.4732 14.2536 47.0849 47.0849 0 0 1 -22.1943 5.157z"/><path d="m169.3579 279.5423v-51.4466h42.5552v78.5255h-4.7521a56.1093 56.1093 0 0 1 -20.0229-3.2571 32.4585 32.4585 0 0 1 -7.6-3.97 25.7711 25.7711 0 0 1 -5.5671-5.3956 23.4788 23.4788 0 0 1 -4.6131-14.4562zm51.5821 27.0789v-78.5255h42.9629v78.5255z"/><path d="m279.9866 328.0028v-99.9071h42.691v99.9071zm51.8542-20.9739v-78.9332h2.5116a45.0288 45.0288 0 0 1 21.4476 5.2258 39.19 39.19 0 0 1 15.4072 14.3207 37.5215 37.5215 0 0 1 5.5644 20.0894 41.3307 41.3307 0 0 1 -2.9192 15.8141 36.5536 36.5536 0 0 1 -21.3787 20.7 44.7091 44.7091 0 0 1 -16.4245 2.9193 4.6586 4.6586 0 0 0 -.8822-.0668 7.1921 7.1921 0 0 1 -1.0174-.0691z"/></g><path d="m260.56 183.0405a15.358 15.358 0 0 1 8.0091 2.1046 15.6669 15.6669 0 0 1 5.7 5.7026 16.2892 16.2892 0 0 1 0 16.0169 15.6773 15.6773 0 0 1 -5.7694 5.6335 15.218 15.218 0 0 1 -7.94 2.1046 14.966 14.966 0 0 1 -7.805-2.1046 16.1836 16.1836 0 0 1 -5.7026-5.7695 14.9544 14.9544 0 0 1 -2.1715-7.8736 15.1973 15.1973 0 0 1 2.1046-7.94 16.21 16.21 0 0 1 5.7-5.7694 15.0949 15.0949 0 0 1 7.8748-2.1051z" fill="#e75221"/></svg>