<svg viewBox="0 0 453.5433 170.0787" xmlns="http://www.w3.org/2000/svg"><path d="m56.9764 55.6986-2.6 13.5363h6.7353l2.6005-13.5363h7.0018l-2.6011 13.5363h5.3347v7.5351h-6.5351l-1.6 8.2689h6.2675v7.5352h-7.8683l-2.2006 11.5359h-7.0685l2.2006-11.5359h-6.7347l-2.2006 11.5359h-7.0685l2.2006-11.5358h-6.0683v-7.5352h7.5352l1.6-8.2689h-6.4012v-7.5352h7.8017l2.6011-13.5363zm-5.601 29.34h6.8015l1.7339-8.2686h-6.935z" fill="#e75221"/><path d="m100.6948 79.1042a7.41 7.41 0 0 0 -4.9341-2.2674 3.0107 3.0107 0 0 0 -3.0678 2.8009c0 2.4 3.401 3.0672 6.7353 4.5341 3.4 1.4674 6.7347 3.7342 6.7347 9.4026 0 7.2682-5.8681 11.6027-12.7363 11.6027a15.0416 15.0416 0 0 1 -11.5359-5.4682l4.2677-5.5343c1.8 2 4.2009 3.8 6.9344 3.8a3.5232 3.5232 0 0 0 3.7348-3.534c0-2.8676-3.2675-3.534-6.535-4.9347s-6.5351-3.3337-6.5351-8.6021c0-6.1345 4.2677-10.6025 10.4023-10.6025 3.4677 0 7.8689 1.0669 10.5362 3.401z" fill="#221f20"/><path d="m149.1269 104.11h-9.2023v-3h-.1335a11.3164 11.3164 0 0 1 -8.8686 4.0675c-9.6023 0-15.07-8.7357-15.07-17.6043 0-8.6689 5.5348-17.271 14.9369-17.271a12.1113 12.1113 0 0 1 9.1356 4.1347v-3.0682h9.2023zm-8.2689-16.4037c0-4.4012-3.0005-9.1356-7.8017-9.1356s-7.7354 4.7344-7.7354 9.1356 2.9343 9.2018 7.7354 9.2018 7.8017-4.8006 7.8017-9.2018z" fill="#221f20"/><path d="m176.7351 89.84 6.7349-18.4713h10.2025l-15.07 33.4084h-4.8011l-15.0043-33.4084h10.2692z" fill="#221f20"/><path d="m209.597 89.24c0 4.1342 1.6 8.8018 6.4677 8.8018 3.0678 0 5.0014-1.8668 6.2686-4.4674l8.6021 1.4c-2.2673 6.5351-8.0019 10.2026-14.8707 10.2026-10.1352 0-16.3371-7.202-16.3371-17.1376s5.2679-17.7377 15.87-17.7377c10.736 0 15.5371 7.9357 15.5371 17.8045v1.1338zm12.7363-5.8014c-.4667-3.3342-2.6006-6.6018-6.2018-6.6018-3.7343 0-5.8014 3.2008-6.2681 6.6018z" fill="#221f20"/><g fill="#e75221"><path d="m276.6406 67.1678a14.5065 14.5065 0 0 0 -11.0692-5.3346c-9.4021 0-14.8035 8.6689-14.8035 17.3377 0 8.4687 5.6011 16.9373 14.7367 16.9373a15.3369 15.3369 0 0 0 11.136-5.3346v11.6694a26.3873 26.3873 0 0 1 -11.4025 3.0005c-14.137 0-24.6059-12.2028-24.6059-26.0728 0-14.27 10.069-26.8728 24.8057-26.8728a23.3925 23.3925 0 0 1 11.2027 2.9337z"/><path d="m321.46 87.7731c0 10.1358-6.9344 17.404-17.2037 17.404s-17.2043-7.2682-17.2043-17.404c0-10.2025 7.0018-17.4713 17.2043-17.4713s17.2037 7.2688 17.2037 17.4713zm-24.9392 0c0 4.4006 2.9343 9.135 7.7355 9.135s7.7349-4.7344 7.7349-9.135c0-4.5347-2.9338-9.2024-7.7349-9.2024s-7.7355 4.6677-7.7355 9.2024z"/><path d="m332.6171 53.8312h9.802v28.14c0 6.2018.5335 14.9369 8.8692 14.9369s8.8686-8.7351 8.8686-14.9369v-28.14h9.8025v30.0742c0 12.27-5.2016 21.5381-18.6711 21.5381s-18.6712-9.2685-18.6712-21.5381z"/><path d="m392.7659 74.37a12.0578 12.0578 0 0 1 9.0688-4.068c9.2691 0 14.937 8.6689 14.937 17.271 0 8.9354-5.4676 17.6043-15.1367 17.6043a10.8137 10.8137 0 0 1 -8.7356-4.1342h-.1335v20.538h-9.3353v-50.2124h9.3353zm14.5369 13.3365c0-4.4012-2.9343-9.1356-7.7349-9.1356s-7.7354 4.7344-7.7354 9.1356 2.9337 9.2018 7.7354 9.2018 7.7349-4.8008 7.7349-9.202z"/></g></svg>