<svg viewBox="0 0 300 300" xmlns="http://www.w3.org/2000/svg"><path d="m282.9673 229.1886c-5.6432-8.8872-14.8214-32.6087-16.591-68.03.7475-69.034-53.9787-122.8468-110.6626-126.868v-8.4689c0-2.7527 8.3935 3.0176 14.7653 2.01 7.5832-1.1984 8.773-5.0073 9.342-10.8972.804-8.4226 2.9941-17.2408-7.9043-16.9262-5.6151.1638-11.586 5.031-21.8656 5.0741-10.2824-.0432-16.2494-4.9104-21.8688-5.0742-10.8968-.3146-8.8479 8.5036-8.0379 16.9262.5647 5.89 1.6667 9.6988 9.2461 10.8972 6.3749 1.0077 14.5374-4.7626 14.5374-2.01v8.3968c-54.9573 3.4809-111.5679 57.5187-110.8097 126.9399-1.7746 35.4216-10.4469 59.1852-16.0889 68.0723-.1832.2922 1.52 2.1265 1.52 2.1265 3.7382 3.4122 22.6922-8.9206 24.7389-15.6513.3508-.9958 1.865-1.7147 2.2186-.6778 10.5249 24.2678 28.5051 49.8011 55.8059 73.3663h12.62c.6862 1.7744 4.6338 11.6057 7.8473 11.6057h15.29v-11.6057h25.8586v11.6057h15.29c3.2137 0 7.1614-9.8313 7.8477-11.6057h13.119c27.3061-23.5652 45.2531-49.0985 55.7806-73.3663.3557-1.0369 1.8386-.484 2.19.5129 2.0478 6.7317 20.95 19.1454 24.685 15.7321.0012 0 1.3075-1.7912 1.1264-2.0844zm-115.1784-221.4917a6.2408 6.2408 0 1 1 -6.2381 6.2414 6.2411 6.2411 0 0 1 6.2381-6.2414zm-35.4777 12.4816a6.2408 6.2408 0 1 1 6.2412-6.24 6.2431 6.2431 0 0 1 -6.2412 6.24z"/><path d="m150.3969 67.9665c-80.82-48.3031-171.3753 112.44-28.21 198.0891l28.21-19.06 28.2109 19.06c143.1653-85.6496 52.6098-246.3922-28.2109-198.0891z" fill="#fff"/><path d="m128.218 225.087 21.663-10.824-21.699-10.962z"/><path d="m98.8417 88.2337c-21.7443 0-39.0338 15.4713-39.0338 37.2216 0 21.8839 17.2895 37.22 39.0338 37.22 21.6075 0 38.8958-15.3365 38.8958-37.22 0-21.7503-17.2883-37.2216-38.8958-37.2216zm0 59.3857c-11.5692 0-21.1872-8.9239-21.1872-22.1641a23.2142 23.2142 0 0 1 3.3-12.1755 12.8076 12.8076 0 1 0 7.2523-7.1294 21.042 21.042 0 0 1 10.6348-2.8615c11.4324 0 21.05 9.0586 21.05 22.1664.0004 13.2402-9.6175 22.1641-21.0499 22.1641z"/><path d="m122.0835 252.0705a2.54 2.54 0 1 0 2.54 2.5371 2.538 2.538 0 0 0 -2.54-2.5371z"/><path d="m132.2031 161.09c-1.4107.3859-1.76 1.7417-1.27 2.1146 6.6993 5.1129 29.1713 4.422 37.0992-.1067.983-.56 0-1.7644-.92-2.22-1.5262-.7642-3.1018 2.3871-6.4148 2.2934-3.6-.1078-9.2386-12.1313-10.7238-12.0289-1.1985.0894-8.5558 12.1841-13.0447 12.2412-3.0338.0315-3.403-2.6575-4.7259-2.2936z"/><path d="m140.4539 167.4352 9.7317 6.9838 7.8348-7.4085c-4.7314 1.1661-14.109 1.2351-17.5665.4247z"/><path d="m202.6225 88.4449c-21.7514 0-39.0344 15.4713-39.0344 37.2205 0 21.8861 17.283 37.2216 39.0344 37.2216 21.6047 0 38.892-15.3355 38.892-37.2216 0-21.7492-17.2873-37.2205-38.892-37.2205zm0 59.3868c-11.5709 0-21.191-8.9249-21.191-22.1663a23.1837 23.1837 0 0 1 3.3044-12.1711 12.7956 12.7956 0 1 0 7.2533-7.1338 21.0444 21.0444 0 0 1 10.6333-2.8615c11.4328 0 21.0486 9.0608 21.0486 22.1664 0 13.2414-9.6158 22.1663-21.0486 22.1663z"/><path d="m178.9246 252.0705a2.54 2.54 0 1 0 2.5413 2.5371 2.5384 2.5384 0 0 0 -2.5413-2.5371z"/><path d="m171.943 225.087.037-21.786-21.698 10.962z"/></svg>