<svg enable-background="new 0 0 640 640" height="640" viewBox="0 0 640 640" width="640" xmlns="http://www.w3.org/2000/svg"><path d="m421.6 408.6 24.7 5.8c-8.9 16.7-16.2 28.7-21.8 35.9-4.4 6.3-11.7 14.2-22.1 23.6-42.1 39.2-98.8 58.8-170.2 58.8-45 0-85.2-9.1-120.5-27.2-17.9-9.4-33.5-20.3-46.8-32.7-13.3-12.3-25-27-35.2-43.9-19.6-32.6-29.4-69.9-29.4-111.7 0-26.6 5.8-53.5 17.4-80.6 11.4-26.9 26.6-50.1 45.7-69.7 39.7-39.7 90.7-59.5 153.2-59.5h10.2v400.6c13.8 1.7 22.7 2.5 26.9 2.5 39.7 0 76.6-12.7 110.7-38.1 12.3-9.4 22.3-18.3 29.8-26.5 7.4-7.7 16.6-20.1 27.4-37.3zm-61.7-298.7c16 0 30.2 3.8 42.8 11.3 12.8 7.5 23 17.7 30.5 30.5 7.5 12.6 11.3 26.9 11.3 42.8 0 16-3.8 30.3-11.3 42.8-7.5 12.6-17.8 22.6-30.8 30.1-12.6 7.5-26.7 11.2-42.5 11.2-15.2 0-29.2-3.7-41.7-11.2-12.8-7.7-23-18-30.5-30.9-7.7-12.8-11.6-26.9-11.6-42.1 0-15.7 3.8-29.9 11.3-42.5 7.7-13.1 17.9-23.4 30.5-30.9 12.5-7.3 26.6-11.1 42-11.1z"/><path d="m555.7 354.1c16 0 30.2 3.8 42.8 11.2 12.8 7.5 23 17.7 30.5 30.5 7.5 12.6 11.3 26.9 11.3 42.8 0 16-3.8 30.3-11.3 42.8-7.5 12.6-17.8 22.6-30.8 30.1-12.6 7.5-26.7 11.2-42.5 11.2-15.2 0-29.2-3.7-41.7-11.2-12.8-7.7-23-18-30.5-30.9-7.7-12.8-11.6-26.9-11.6-42.1 0-15.7 3.8-29.9 11.3-42.5 7.7-13.1 17.9-23.3 30.5-30.8 12.5-7.3 26.5-11.1 42-11.1z" fill="#e7501e"/></svg>